# xmcd
#
# Track frame offsets:
#       150
#       14912
#       31344
#       49469
#       63931
#       76835
#       90307
#       95036
#       108585
#       126941
#       145485
#       160917
#
# Disc length: 2328 seconds
#
# Revision: 0
# Processed by: cddbd v1.5.2PL0 Copyright (c) Steve Scherf et al.
# Submitted via: WaveLab 4.01
#
DISCID=a509160c
DTITLE=ADI - E por aqui tudo vai bem
DYEAR=1900
DGENRE=
TTITLE0=Mundo Inteiro
TTITLE1=Antes Tarde do Que Nunca, Pequena
TTITLE2=Falhas Perfeitas
TTITLE3=Desencontros Marcados
TTITLE4=Nao Precisa me Dizer
TTITLE5=Retrato Que eu Fiz
TTITLE6=Pra Voce Lembrar
TTITLE7=Nada de Mais
TTITLE8=Eu, Eu Mesmo e Meus Planos
TTITLE9=O que Sobrou do Inverno
TTITLE10=O Dia Em Que o Nosso Parou
TTITLE11=Autocontrole
EXTD=
EXTT0=
EXTT1=
EXTT2=
EXTT3=
EXTT4=
EXTT5=
EXTT6=
EXTT7=
EXTT8=
EXTT9=
EXTT10=
EXTT11=
PLAYORDER=
